<?xml version="1.0" encoding="iso-8859-1"?>
<!-- Generator: Adobe Illustrator 19.0.0, SVG Export Plug-In . SVG Version: 6.00 Build 0)  -->
<svg version="1.1" id="Layer_1" xmlns="http://www.w3.org/2000/svg" xmlns:xlink="http://www.w3.org/1999/xlink" x="0px" y="0px"
	 viewBox="0 0 511.999 511.999" style="enable-background:new 0 0 511.999 511.999;" xml:space="preserve">
<path style="fill:#F7B239;" d="M401.837,193.594c0.105,1.292,0.151,2.584,0.151,3.899c0,27.537-22.335,49.86-49.872,49.86
	c-12.36,0-23.673-4.504-32.391-11.965L401.837,193.594z"/>
<path style="fill:#F95428;" d="M363.615,105.197c35.743,2.91,69.181,23.731,86.639,58.031l2.316,4.539l-50.733,25.826
	l-82.111,41.795l-57.623,29.33l-2.304-4.539c-17.458-34.299-14.618-73.592,4.05-104.202L363.615,105.197z"/>
<path style="fill:#E54728;" d="M308.208,237.866c-17.645-34.668-15.424-74.223,2.429-105.703l-46.788,23.814
	c-18.669,30.61-21.508,69.902-4.05,104.202l2.304,4.539l47.471-24.162L308.208,237.866z"/>
<path style="fill:#F95428;" d="M330.084,39.299l33.531,65.899l-99.767,50.78l-15.91-31.25L232.086,93.57l-1.769-3.48
	c-4.143-8.135-6.099-16.806-6.099-25.349c0-20.391,11.173-40.049,30.587-49.93C282.354,0.786,316.059,11.75,330.084,39.299z"/>
<path style="fill:#E54728;" d="M280.526,109.597L264.674,78.44l-1.769-3.48c-4.143-8.135-6.099-16.806-6.099-25.349
	c0-15.173,6.195-29.934,17.36-40.568c-6.57,0.711-13.124,2.593-19.362,5.768c-19.413,9.881-30.587,29.539-30.587,49.93
	c0,8.543,1.955,17.214,6.099,25.349l1.769,3.48l15.852,31.157l15.91,31.25l32-16.287L280.526,109.597z"/>
<polygon style="fill:#F95428;" points="132.796,452.381 177.721,452.381 245.11,452.381 281.748,452.381 281.748,503.266 
	59.437,503.266 59.437,452.381 96.285,452.381 "/>
<polygon style="fill:#E54728;" points="74.373,452.381 83.52,452.381 97.241,452.381 104.7,452.381 104.7,503.266 59.437,503.266 
	59.437,452.381 66.939,452.381 "/>
<g>
	<path style="fill:#F7B239;" d="M247.938,124.727c-8.776,4.97-27.072,16.294-47.288,34.544
		c-12.686,11.441-26.117,25.617-38.443,42.644c-22.893,31.646-37.57,66.993-43.622,105.075c-2.13,13.373-3.189,27.13-3.189,41.224
		c0,32.996,5.819,67.854,17.4,104.167H96.285c-15.666-53.585-19.716-104.574-12.011-151.909c7.1-43.68,24.127-84.171,50.594-120.333
		c17.225-23.534,36.15-42.086,53.038-56.064c19.076-15.805,35.58-25.757,44.169-30.505h0.012L247.938,124.727z"/>
	<rect x="177.724" y="417.784" style="fill:#F7B239;" width="67.388" height="34.602"/>
</g>
<g>
	<rect x="177.724" y="417.784" style="fill:#E09B2D;" width="28.98" height="34.602"/>
	<path style="fill:#E09B2D;" d="M247.938,124.727c-8.776,4.97-27.072,16.294-47.288,34.544l-12.744-35.196
		c19.076-15.805,35.58-25.757,44.169-30.505h0.012L247.938,124.727z"/>
</g>
<g>
	<path style="fill:#FFFFFF;" d="M410.097,165.466c-2.243,0-4.484-0.859-6.189-2.575c-11.484-11.55-26.885-18.652-43.367-19.998
		c-4.804-0.392-8.382-4.605-7.99-9.41c0.392-4.804,4.604-8.385,9.411-7.99c20.62,1.683,39.914,10.594,54.326,25.088
		c3.4,3.419,3.383,8.946-0.035,12.344C414.549,164.62,412.322,165.466,410.097,165.466z"/>
	<path style="fill:#FFFFFF;" d="M312.094,76.829c-3.179,0-6.244-1.743-7.785-4.771l-7.938-15.595
		c-3.118-6.123-9.333-9.928-16.22-9.928c-2.842,0-5.598,0.668-8.187,1.987c-4.296,2.188-9.552,0.478-11.739-3.819
		c-2.187-4.296-0.477-9.552,3.819-11.739c5.066-2.579,10.485-3.886,16.107-3.886c13.489,0,25.666,7.459,31.777,19.466l7.938,15.595
		c2.187,4.297,0.477,9.553-3.819,11.739C314.778,76.523,313.426,76.829,312.094,76.829z"/>
	<path style="fill:#FFFFFF;" d="M257.167,488.88c-4.822,0-8.729-3.908-8.729-8.729v-4.655c0-4.821,3.907-8.729,8.729-8.729
		c4.822,0,8.729,3.908,8.729,8.729v4.655C265.896,484.972,261.989,488.88,257.167,488.88z"/>
	<circle style="fill:#FFFFFF;" cx="325.233" cy="93.913" r="8.729"/>
</g>
<path style="fill:#333333;" d="M460.348,163.808l-2.308-4.534c-17.585-34.547-50.535-57.549-88.798-62.275l-31.384-61.654
	C321.676,3.55,282.646-9.151,250.845,7.033c-15.402,7.84-26.83,21.209-32.176,37.643c-4.891,15.034-4.141,30.982,2.02,45.383
	c-20.744,12.419-59.722,39.644-92.863,84.921c-27.291,37.291-44.842,79.04-52.164,124.086c-7.362,45.227-4.281,93.818,9.141,144.59
	H59.432c-4.822,0-8.729,3.908-8.729,8.729v50.885c0,4.821,3.907,8.729,8.729,8.729h222.321c4.822,0,8.729-3.908,8.729-8.729v-50.885
	c0-4.821-3.907-8.729-8.729-8.729h-27.909v-25.873c0-4.821-3.907-8.729-8.729-8.729h-67.399c-4.822,0-8.729,3.908-8.729,8.729
	v25.873h-29.754c-10.022-33.183-15.105-65.263-15.105-95.446c0-13.609,1.037-27.017,3.081-39.856
	c5.833-36.709,19.988-70.8,42.073-101.328c26.173-36.185,57.378-58.948,75.115-70.027l9.518,18.699
	c-18.693,33.719-19.483,73.894-1.898,108.443l2.308,4.534c1.541,3.028,4.607,4.772,7.785,4.771c1.333,0,2.685-0.306,3.953-0.951
	l52.72-26.835c9.751,6.75,21.378,10.425,33.329,10.425c31.847,0,57.824-25.535,58.566-57.201l45.85-23.338
	c2.062-1.05,3.624-2.877,4.34-5.079C461.583,168.265,461.398,165.871,460.348,163.808z M273.023,494.541H68.161v-33.426h204.863
	v33.426H273.023z M186.446,426.513h49.941v17.144h-49.941V426.513z M155.138,196.796c-23.706,32.769-38.904,69.381-45.17,108.818
	c-2.189,13.74-3.298,28.071-3.298,42.598c0,30.349,4.841,62.408,14.37,95.446h-18.153c-13.805-50.013-17.174-97.684-9.994-141.788
	c6.876-42.307,23.369-81.529,49.02-116.578c30.768-42.034,66.774-67.563,86.572-79.552l7.964,15.647
	C217.747,132.924,183.618,157.422,155.138,196.796z M238.093,86.127c-5.724-11.247-6.726-24.049-2.822-36.05
	s12.247-21.762,23.495-27.486c6.738-3.43,14.035-5.165,21.382-5.165c4.917,0,9.857,0.776,14.668,2.342
	c12.001,3.905,21.761,12.249,27.486,23.495l29.58,58.11l-84.209,42.863L238.093,86.127z M352.113,238.629
	c-4.95,0-9.821-0.899-14.39-2.607l54.019-27.497C386.908,225.864,370.978,238.629,352.113,238.629z M265.983,252.949
	c-13.516-29.11-12.019-62.452,4.096-90.347l95.233-48.474c32.038,3.385,59.877,21.795,75.459,49.851L265.983,252.949z"/>
<g>
</g>
<g>
</g>
<g>
</g>
<g>
</g>
<g>
</g>
<g>
</g>
<g>
</g>
<g>
</g>
<g>
</g>
<g>
</g>
<g>
</g>
<g>
</g>
<g>
</g>
<g>
</g>
<g>
</g>
</svg>
